<svg xmlns="http://www.w3.org/2000/svg" version="1.1" xmlns:xlink="http://www.w3.org/1999/xlink" xmlns:svgjs="http://svgjs.dev/svgjs" width="1000" height="553" viewBox="0 0 1000 553"><g transform="matrix(1,0,0,1,-0.6060575566584134,-0.5279568645942163)"><svg viewBox="0 0 396 219" data-background-color="#fcfafa" preserveAspectRatio="xMidYMid meet" height="553" width="1000" xmlns="http://www.w3.org/2000/svg" xmlns:xlink="http://www.w3.org/1999/xlink"><defs></defs><g id="tight-bounds" transform="matrix(1,0,0,1,0.2399987924367224,0.2090823749477977)"><svg viewBox="0 0 395.52 218.5818352501044" height="218.5818352501044" width="395.52"><g><svg viewBox="0 0 395.52 218.5818352501044" height="218.5818352501044" width="395.52"><g transform="matrix(1,0,0,1,0,135.09234325288799)"><svg viewBox="0 0 395.52 83.48949199721642" height="83.48949199721642" width="395.52"><g><svg viewBox="0 0 395.52 83.48949199721642" height="83.48949199721642" width="395.52"><g><svg viewBox="0 0 395.52 83.48949199721642" height="83.48949199721642" width="395.52"><g transform="matrix(1,0,0,1,0,0)"><svg width="395.52" viewBox="3.8499999046325684 -35.5 215.52999877929688 45.5" height="83.48949199721642" data-palette-color="#000000"><path d="M26.7-28.5L25.3-27.95Q24.15-30.85 22.05-32.43 19.95-34 15.5-34L15.5-34Q13.05-34 11.3-33.38 9.55-32.75 8.15-31.25 6.75-29.75 6.05-26.93 5.35-24.1 5.35-19.95L5.35-19.95 5.35-15.05Q5.35-10.9 6.05-8.08 6.75-5.25 8.15-3.75 9.55-2.25 11.3-1.63 13.05-1 15.5-1L15.5-1Q20-1 22.65-2.93 25.3-4.85 25.3-7.05L25.3-7.05 25.3-15.5 19.15-15.5 19.15-17 27.1-17 27.1-7.55Q27.1-4.2 24.08-1.85 21.05 0.5 15.5 0.5L15.5 0.5Q9.35 0.5 6.6-3.28 3.85-7.05 3.85-15.05L3.85-15.05 3.85-19.95Q3.85-27.95 6.6-31.73 9.35-35.5 15.5-35.5L15.5-35.5Q20.45-35.5 22.9-33.68 25.35-31.85 26.7-28.5L26.7-28.5ZM38.15 0L38.15-1.5 54.45-1.5 44.2-25.65 33.3 0 31.7 0 44.2-29.5 56.7 0 38.15 0ZM63.9-1.5L79.09-1.5 79.09 0 62.4 0 62.4-29 63.9-29 63.9-1.5ZM86.34-1.5L101.54-1.5 101.54 0 84.84 0 84.84-29 86.34-29 86.34-1.5ZM125.59-3.95L126.69-2.95Q123.94 0.5 117.69 0.5 111.44 0.5 108.74-3.05 106.04-6.6 106.04-14.5 106.04-22.4 108.74-25.95 111.44-29.5 117.69-29.5L117.69-29.5Q124.94-29.5 127.54-24.75L127.54-24.75 115.29-14.5 112.94-14.5 125.59-25.05Q123.39-28 117.69-28L117.69-28Q115.19-28 113.49-27.48 111.79-26.95 110.37-25.53 108.94-24.1 108.24-21.38 107.54-18.65 107.54-14.5 107.54-10.35 108.24-7.63 108.94-4.9 110.37-3.48 111.79-2.05 113.49-1.53 115.19-1 117.69-1L117.69-1Q123.39-1 125.59-3.95L125.59-3.95ZM146.89-14.55L146.89-14.55 153.69 0 152.04 0 145.04-15Q145.14-15.05 145.91-15.43 146.69-15.8 146.99-15.98 147.29-16.15 147.99-16.6 148.69-17.05 149.04-17.48 149.39-17.9 149.81-18.48 150.24-19.05 150.44-19.78 150.64-20.5 150.64-21.35L150.64-21.35Q150.64-24.5 147.64-26 144.64-27.5 140.19-27.5L140.19-27.5 136.19-27.5 136.19 0 134.69 0 134.69-29 140.19-29Q146.09-29 149.11-26.95 152.14-24.9 152.14-21.35L152.14-21.35Q152.14-19.05 150.59-17.28 149.04-15.5 146.89-14.55ZM160.49 0L160.49-29 161.99-29 161.99 0 160.49 0ZM173.23-27.5L173.23-29 192.58-29 180.83-1.25 180.83 10 179.33 10 179.33-1.25 167.58-29 169.18-29 180.08-3.35 190.33-27.5 173.23-27.5ZM200.83 0L200.83-1.5 217.13-1.5 206.88-25.65 195.98 0 194.38 0 206.88-29.5 219.38 0 200.83 0Z" opacity="1" transform="matrix(1,0,0,1,0,0)" fill="#000000" class="undefined-text-0" data-fill-palette-color="primary" id="text-0"></path></svg></g></svg></g></svg></g></svg></g><g transform="matrix(1,0,0,1,140.06876102992342,0)"><svg viewBox="0 0 115.38247794015312 115.38247794015311" height="115.38247794015311" width="115.38247794015312"><g><svg></svg></g><g id="icon-0"><svg viewBox="0 0 115.38247794015312 115.38247794015311" height="115.38247794015311" width="115.38247794015312"><g><path d="M34.615 115.382c-19.117 0-34.615-15.498-34.615-34.614v-46.153c0-19.117 15.498-34.615 34.615-34.615h46.153c19.117 0 34.615 15.498 34.614 34.615v46.153c0 19.117-15.498 34.615-34.614 34.614z" fill="#000000" data-fill-palette-color="accent"></path></g><g transform="matrix(1,0,0,1,23.07637374417292,23.076495588030625)"><svg viewBox="0 0 69.22973045180728 69.22948676409186" height="69.22948676409186" width="69.22973045180728"><g><svg xmlns="http://www.w3.org/2000/svg" xmlns:xlink="http://www.w3.org/1999/xlink" version="1.1" x="0" y="0" viewBox="7.734947204589844 7.735245704650879 84.53054809570312 84.5302505493164" enable-background="new 0 0 100 100" xml:space="preserve" height="69.22948676409186" width="69.22973045180728" class="icon-x-0" data-fill-palette-color="quaternary" id="x-0"><g fill="#fcf8f8" data-fill-palette-color="quaternary"><g fill="#fcf8f8" data-fill-palette-color="quaternary"><g fill="#fcf8f8" data-fill-palette-color="quaternary"><path d="M28.368 14.767C42.162 16.327 48.04 25.762 49.69 30.695c1.07 3.198 1.472 5.094 1.472 9.275 0 0.817 0.044 2.076-1.054 2.216-0.77 0.099-1.209-0.509-1.273-1.182-0.289-3.026-1.159-6.569-4.008-9.85-2.253-2.594-7.472-7.802-16.652-7.021-2.669 0.228-5.052-1.868-5.129-4.564C22.964 16.703 25.531 14.446 28.368 14.767z" fill="#fcf8f8" data-fill-palette-color="quaternary"></path><path d="M71.633 85.232c-13.794-1.561-19.671-10.995-21.322-15.929-1.07-3.198-1.472-5.094-1.472-9.275 0-0.817-0.044-2.076 1.054-2.216 0.77-0.099 1.209 0.509 1.273 1.182 0.289 3.026 1.159 6.569 4.008 9.85 2.253 2.594 7.472 7.802 16.652 7.021 2.669-0.228 5.052 1.868 5.129 4.564C77.037 83.296 74.47 85.553 71.633 85.232z" fill="#fcf8f8" data-fill-palette-color="quaternary"></path></g><g fill="#fcf8f8" data-fill-palette-color="quaternary"><path d="M14.768 71.633c1.56-13.794 10.995-19.672 15.928-21.322 3.198-1.07 5.094-1.472 9.276-1.472 0.817 0 2.076-0.045 2.216 1.054 0.098 0.77-0.509 1.209-1.182 1.273-3.026 0.288-6.569 1.159-9.849 4.008-2.594 2.254-7.802 7.473-7.021 16.652 0.228 2.669-1.868 5.052-4.564 5.129C16.704 77.036 14.447 74.47 14.768 71.633z" fill="#fcf8f8" data-fill-palette-color="quaternary"></path><path d="M85.233 28.367c-1.56 13.794-10.995 19.672-15.928 21.322-3.198 1.07-5.094 1.472-9.276 1.472-0.817 0-2.076 0.045-2.216-1.054-0.098-0.77 0.509-1.209 1.182-1.273 3.026-0.288 6.569-1.159 9.849-4.008 2.594-2.254 7.802-7.473 7.021-16.652-0.228-2.669 1.868-5.052 4.564-5.129C83.297 22.964 85.554 25.53 85.233 28.367z" fill="#fcf8f8" data-fill-palette-color="quaternary"></path></g></g><g fill="#fcf8f8" data-fill-palette-color="quaternary"><g fill="#fcf8f8" data-fill-palette-color="quaternary"><path d="M13.65 30.304c12.726-5.546 22.533-0.314 26.43 3.133 2.526 2.234 3.821 3.676 5.912 7.297 0.409 0.708 1.077 1.775 0.195 2.446-0.617 0.47-1.302 0.164-1.693-0.387-1.763-2.477-4.289-5.109-8.396-6.525-3.249-1.12-10.373-3.021-17.931 2.246-2.198 1.531-5.309 0.907-6.724-1.389C9.938 34.682 11.033 31.444 13.65 30.304z" fill="#fcf8f8" data-fill-palette-color="quaternary"></path><path d="M86.351 69.695c-12.726 5.546-22.533 0.314-26.43-3.133-2.526-2.234-3.821-3.676-5.912-7.297-0.409-0.708-1.077-1.775-0.196-2.446 0.618-0.47 1.302-0.164 1.694 0.387 1.763 2.477 4.289 5.109 8.396 6.525 3.249 1.12 10.373 3.021 17.931-2.245 2.198-1.532 5.309-0.908 6.724 1.388C90.063 65.317 88.968 68.555 86.351 69.695z" fill="#fcf8f8" data-fill-palette-color="quaternary"></path></g><g fill="#fcf8f8" data-fill-palette-color="quaternary"><path d="M30.304 86.351c-5.546-12.726-0.314-22.533 3.133-26.43 2.235-2.525 3.676-3.821 7.298-5.912 0.708-0.409 1.775-1.076 2.445-0.195 0.47 0.617 0.164 1.302-0.387 1.693-2.477 1.764-5.109 4.289-6.525 8.396-1.12 3.248-3.021 10.372 2.246 17.931 1.531 2.198 0.908 5.31-1.389 6.725C34.683 90.062 31.445 88.968 30.304 86.351z" fill="#fcf8f8" data-fill-palette-color="quaternary"></path><path d="M69.696 13.649c5.546 12.726 0.314 22.533-3.133 26.43-2.234 2.526-3.675 3.821-7.297 5.913-0.708 0.408-1.775 1.076-2.446 0.195-0.47-0.618-0.163-1.303 0.388-1.694 2.477-1.763 5.109-4.288 6.525-8.396 1.12-3.249 3.021-10.372-2.246-17.932-1.532-2.198-0.908-5.309 1.388-6.724C65.318 9.938 68.556 11.032 69.696 13.649z" fill="#fcf8f8" data-fill-palette-color="quaternary"></path></g></g><g fill="#fcf8f8" data-fill-palette-color="quaternary"><g fill="#fcf8f8" data-fill-palette-color="quaternary"><path d="M8.671 51.118c8.248-11.166 19.357-11.539 24.456-10.502 3.305 0.672 5.147 1.272 8.769 3.363 0.708 0.408 1.82 0.999 1.392 2.021-0.299 0.716-1.045 0.793-1.66 0.512-2.765-1.263-6.269-2.28-10.533-1.453-3.374 0.654-10.494 2.57-14.406 10.911-1.138 2.425-4.144 3.44-6.518 2.159C7.646 56.766 6.976 53.414 8.671 51.118z" fill="#fcf8f8" data-fill-palette-color="quaternary"></path><path d="M91.329 48.882C83.081 60.047 71.971 60.42 66.874 59.383c-3.305-0.672-5.147-1.272-8.769-3.363-0.708-0.408-1.82-0.999-1.393-2.021 0.3-0.716 1.046-0.793 1.66-0.512 2.766 1.264 6.269 2.28 10.534 1.453 3.373-0.654 10.493-2.569 14.406-10.91 1.138-2.426 4.144-3.441 6.517-2.16C92.354 43.233 93.025 46.585 91.329 48.882z" fill="#fcf8f8" data-fill-palette-color="quaternary"></path></g><g fill="#fcf8f8" data-fill-palette-color="quaternary"><path d="M51.119 91.329C39.953 83.081 39.58 71.972 40.617 66.874c0.673-3.305 1.272-5.147 3.364-8.77 0.409-0.708 1-1.819 2.02-1.392 0.716 0.3 0.793 1.045 0.512 1.66-1.263 2.765-2.28 6.269-1.453 10.533 0.654 3.374 2.57 10.493 10.911 14.406 2.425 1.138 3.44 4.144 2.159 6.518C56.766 92.354 53.415 93.025 51.119 91.329z" fill="#fcf8f8" data-fill-palette-color="quaternary"></path><path d="M48.882 8.672c11.166 8.247 11.538 19.356 10.501 24.455-0.672 3.305-1.271 5.147-3.362 8.77-0.409 0.707-1 1.819-2.021 1.392-0.716-0.3-0.792-1.046-0.511-1.661 1.263-2.765 2.28-6.268 1.453-10.533-0.655-3.373-2.57-10.492-10.911-14.406-2.426-1.137-3.44-4.144-2.159-6.517C43.234 7.646 46.585 6.976 48.882 8.672z" fill="#fcf8f8" data-fill-palette-color="quaternary"></path></g></g></g></svg></g></svg></g></svg></g></svg></g><g></g></svg></g></svg><rect width="395.52" height="218.5818352501044" fill="none" stroke="none" visibility="hidden"></rect></g></svg></g></svg>